# xmcd CD database file generated by Grip 3.3.1
# 
# Track frame offsets:
#       150
#       20358
#       39520
#       61808
#       77630
#       91588
#       115263
#       131865
#       147138
#       162743
#       181025
#       209190
#       227875
#       252190
#       272425
#       290893
# 
# Disc length: 4179 seconds
# 
# Revision: 1
# Processed by: cddbd v1.5.2PL0 Copyright (c) Steve Scherf et al.
# Submitted via: Grip 3.3.1
# 
DISCID=e5105110
DTITLE=Various Artist - Golden Hit mix
DYEAR=1992
DGENRE=Pop
TTITLE0=Elton John and Kiki Dee - Don't go breaking my heart
TTITLE1=Loïs Lane - I wanna be
TTITLE2=Kool and The Gang - Celebration
TTITLE3=Bananarama - Movin' on
TTITLE4=Roots Syndicate - Mockin' Bird Hill
TTITLE5=Cathy Dennis - Everybody move
TTITLE6=Robby Valentine - Love takes me higher
TTITLE7=Skakatak - Down on the street
TTITLE8=ABC - The look of love
TTITLE9=Gloria Gainer - Never can say goodbye
TTITLE10=Swing Out Sister - Am I the same girl
TTITLE11=Incognito - Don't you worry 'bout a thing
TTITLE12=Maureen - Thinking of you
TTITLE13=Level 42 - Take care of yourself
TTITLE14=ugly Kid Joe - Everything about you
TTITLE15=Khaled - Didi
EXTD=
EXTT0=
EXTT1=
EXTT2=
EXTT3=
EXTT4=
EXTT5=
EXTT6=
EXTT7=
EXTT8=
EXTT9=
EXTT10=
EXTT11=
EXTT12=
EXTT13=
EXTT14=
EXTT15=
PLAYORDER=
